<svg width="1432" height="1425" xmlns="http://www.w3.org/2000/svg" xmlns:xlink="http://www.w3.org/1999/xlink" xml:space="preserve" overflow="hidden"><defs><filter id="fx0" x="-10%" y="-10%" width="120%" height="120%" filterUnits="userSpaceOnUse" primitiveUnits="userSpaceOnUse"><feComponentTransfer color-interpolation-filters="sRGB"><feFuncR type="discrete" tableValues="0 0"/><feFuncG type="discrete" tableValues="0 0"/><feFuncB type="discrete" tableValues="0 0"/><feFuncA type="linear" slope="0.431373" intercept="0"/></feComponentTransfer><feGaussianBlur stdDeviation="6.11111 6.11111"/></filter><filter id="fx1" x="-10%" y="-10%" width="120%" height="120%" filterUnits="userSpaceOnUse" primitiveUnits="userSpaceOnUse"><feComponentTransfer color-interpolation-filters="sRGB"><feFuncR type="discrete" tableValues="0 0"/><feFuncG type="discrete" tableValues="0 0"/><feFuncB type="discrete" tableValues="0 0"/><feFuncA type="linear" slope="0.4" intercept="0"/></feComponentTransfer><feGaussianBlur stdDeviation="6.11111 6.11111"/></filter><filter id="fx2" x="-10%" y="-10%" width="120%" height="120%" filterUnits="userSpaceOnUse" primitiveUnits="userSpaceOnUse"><feComponentTransfer color-interpolation-filters="sRGB"><feFuncR type="discrete" tableValues="0 0"/><feFuncG type="discrete" tableValues="0 0"/><feFuncB type="discrete" tableValues="0 0"/><feFuncA type="linear" slope="0.4" intercept="0"/></feComponentTransfer><feGaussianBlur stdDeviation="6.11111 6.11111"/></filter><filter id="fx3" x="-10%" y="-10%" width="120%" height="120%" filterUnits="userSpaceOnUse" primitiveUnits="userSpaceOnUse"><feComponentTransfer color-interpolation-filters="sRGB"><feFuncR type="discrete" tableValues="0 0"/><feFuncG type="discrete" tableValues="0 0"/><feFuncB type="discrete" tableValues="0 0"/><feFuncA type="linear" slope="0.4" intercept="0"/></feComponentTransfer><feGaussianBlur stdDeviation="6.11111 6.11111"/></filter><filter id="fx4" x="-10%" y="-10%" width="120%" height="120%" filterUnits="userSpaceOnUse" primitiveUnits="userSpaceOnUse"><feComponentTransfer color-interpolation-filters="sRGB"><feFuncR type="discrete" tableValues="0 0"/><feFuncG type="discrete" tableValues="0 0"/><feFuncB type="discrete" tableValues="0 0"/><feFuncA type="linear" slope="0.4" intercept="0"/></feComponentTransfer><feGaussianBlur stdDeviation="6.11111 6.11111"/></filter><filter id="fx5" x="-10%" y="-10%" width="120%" height="120%" filterUnits="userSpaceOnUse" primitiveUnits="userSpaceOnUse"><feComponentTransfer color-interpolation-filters="sRGB"><feFuncR type="discrete" tableValues="0 0"/><feFuncG type="discrete" tableValues="0 0"/><feFuncB type="discrete" tableValues="0 0"/><feFuncA type="linear" slope="0.4" intercept="0"/></feComponentTransfer><feGaussianBlur stdDeviation="6.11111 6.11111"/></filter><filter id="fx6" x="-10%" y="-10%" width="120%" height="120%" filterUnits="userSpaceOnUse" primitiveUnits="userSpaceOnUse"><feComponentTransfer color-interpolation-filters="sRGB"><feFuncR type="discrete" tableValues="0 0"/><feFuncG type="discrete" tableValues="0 0"/><feFuncB type="discrete" tableValues="0 0"/><feFuncA type="linear" slope="0.4" intercept="0"/></feComponentTransfer><feGaussianBlur stdDeviation="6.11111 6.11111"/></filter><filter id="fx7" x="-10%" y="-10%" width="120%" height="120%" filterUnits="userSpaceOnUse" primitiveUnits="userSpaceOnUse"><feComponentTransfer color-interpolation-filters="sRGB"><feFuncR type="discrete" tableValues="0 0"/><feFuncG type="discrete" tableValues="0 0"/><feFuncB type="discrete" tableValues="0 0"/><feFuncA type="linear" slope="0.431373" intercept="0"/></feComponentTransfer><feGaussianBlur stdDeviation="6.11111 6.11111"/></filter><clipPath id="clip8"><rect x="2673" y="529" width="1432" height="1425"/></clipPath><clipPath id="clip9"><rect x="-3" y="-3" width="1425" height="1425"/></clipPath><clipPath id="clip10"><rect x="0" y="0" width="1419" height="1418"/></clipPath><clipPath id="clip11"><rect x="-3" y="-3" width="451" height="781"/></clipPath><clipPath id="clip12"><rect x="0" y="0" width="447" height="777"/></clipPath><linearGradient x1="4086.94" y1="1023.01" x2="3666.06" y2="1751.99" gradientUnits="userSpaceOnUse" spreadMethod="reflect" id="fill13"><stop offset="0" stop-color="#5C2D91"/><stop offset="0.0769231" stop-color="#5B2C90"/><stop offset="0.153846" stop-color="#5B2C90"/><stop offset="0.230769" stop-color="#5B2C90"/><stop offset="0.307692" stop-color="#5B2C8F"/><stop offset="0.384615" stop-color="#5A2C8E"/><stop offset="0.461538" stop-color="#592C8D"/><stop offset="0.538462" stop-color="#592B8C"/><stop offset="0.615385" stop-color="#582B8B"/><stop offset="0.692308" stop-color="#572A89"/><stop offset="0.769231" stop-color="#562A88"/><stop offset="0.846154" stop-color="#552A86"/><stop offset="0.923077" stop-color="#542984"/><stop offset="1" stop-color="#532983"/></linearGradient><clipPath id="clip14"><rect x="-3" y="-3" width="592" height="637"/></clipPath><clipPath id="clip15"><rect x="0" y="0" width="585" height="629"/></clipPath><linearGradient x1="3758.15" y1="1285.63" x2="3366.85" y2="1963.37" gradientUnits="userSpaceOnUse" spreadMethod="reflect" id="fill16"><stop offset="0" stop-color="#6B3E9F"/><stop offset="0.0625" stop-color="#6A3D9E"/><stop offset="0.125" stop-color="#6A3D9E"/><stop offset="0.1875" stop-color="#6A3D9E"/><stop offset="0.25" stop-color="#693C9D"/><stop offset="0.3125" stop-color="#693C9D"/><stop offset="0.375" stop-color="#683B9C"/><stop offset="0.4375" stop-color="#673A9C"/><stop offset="0.5" stop-color="#66399B"/><stop offset="0.5625" stop-color="#65389A"/><stop offset="0.625" stop-color="#643699"/><stop offset="0.6875" stop-color="#633598"/><stop offset="0.75" stop-color="#623496"/><stop offset="0.8125" stop-color="#603295"/><stop offset="0.875" stop-color="#5F3094"/><stop offset="0.9375" stop-color="#5D2E92"/><stop offset="1" stop-color="#5C2D91"/></linearGradient><clipPath id="clip17"><rect x="-3" y="-3" width="795" height="379"/></clipPath><clipPath id="clip18"><rect x="0" y="0" width="790" height="372"/></clipPath><linearGradient x1="3337.63" y1="1458.12" x2="3006.37" y2="2031.88" gradientUnits="userSpaceOnUse" spreadMethod="reflect" id="fill19"><stop offset="0" stop-color="#936FBD"/><stop offset="0.0208333" stop-color="#926EBC"/><stop offset="0.0416667" stop-color="#926EBC"/><stop offset="0.0625" stop-color="#926EBC"/><stop offset="0.0833333" stop-color="#926EBC"/><stop offset="0.104167" stop-color="#926EBC"/><stop offset="0.125" stop-color="#926EBC"/><stop offset="0.145833" stop-color="#916DBC"/><stop offset="0.166667" stop-color="#916DBB"/><stop offset="0.1875" stop-color="#916CBB"/><stop offset="0.208333" stop-color="#906CBB"/><stop offset="0.229167" stop-color="#906BBB"/><stop offset="0.25" stop-color="#906BBA"/><stop offset="0.270833" stop-color="#8F6ABA"/><stop offset="0.291667" stop-color="#8F6ABA"/><stop offset="0.3125" stop-color="#8E69B9"/><stop offset="0.333333" stop-color="#8D68B9"/><stop offset="0.354167" stop-color="#8D68B8"/><stop offset="0.375" stop-color="#8C67B8"/><stop offset="0.395833" stop-color="#8B66B7"/><stop offset="0.416667" stop-color="#8B65B7"/><stop offset="0.4375" stop-color="#8A64B6"/><stop offset="0.458333" stop-color="#8963B6"/><stop offset="0.479167" stop-color="#8862B5"/><stop offset="0.5" stop-color="#8861B4"/><stop offset="0.520833" stop-color="#8760B4"/><stop offset="0.541667" stop-color="#865FB3"/><stop offset="0.5625" stop-color="#855EB2"/><stop offset="0.583333" stop-color="#845DB2"/><stop offset="0.604167" stop-color="#835BB1"/><stop offset="0.625" stop-color="#825AB0"/><stop offset="0.645833" stop-color="#8159AF"/><stop offset="0.666667" stop-color="#8058AE"/><stop offset="0.6875" stop-color="#7F56AE"/><stop offset="0.708333" stop-color="#7E55AD"/><stop offset="0.729167" stop-color="#7C53AC"/><stop offset="0.75" stop-color="#7B52AB"/><stop offset="0.770833" stop-color="#7A50AA"/><stop offset="0.791667" stop-color="#794FA9"/><stop offset="0.8125" stop-color="#774DA8"/><stop offset="0.833333" stop-color="#764CA7"/><stop offset="0.854167" stop-color="#754AA6"/><stop offset="0.875" stop-color="#7348A5"/><stop offset="0.895833" stop-color="#7247A4"/><stop offset="0.916667" stop-color="#7145A3"/><stop offset="0.9375" stop-color="#6F43A2"/><stop offset="0.958333" stop-color="#6E41A1"/><stop offset="0.979167" stop-color="#6C3FA0"/><stop offset="1" stop-color="#6B3E9F"/></linearGradient><clipPath id="clip20"><rect x="-3" y="-3" width="578" height="664"/></clipPath><clipPath id="clip21"><rect x="0" y="0" width="573" height="658"/></clipPath><linearGradient x1="3167.93" y1="922.852" x2="2767.07" y2="1617.15" gradientUnits="userSpaceOnUse" spreadMethod="reflect" id="fill22"><stop offset="0" stop-color="#C6B0DE"/><stop offset="0.015625" stop-color="#C5AFDD"/><stop offset="0.03125" stop-color="#C5AFDD"/><stop offset="0.046875" stop-color="#C5AFDD"/><stop offset="0.0625" stop-color="#C5AFDD"/><stop offset="0.078125" stop-color="#C5AFDD"/><stop offset="0.09375" stop-color="#C5AFDD"/><stop offset="0.109375" stop-color="#C5AEDD"/><stop offset="0.125" stop-color="#C4AEDD"/><stop offset="0.140625" stop-color="#C4AEDD"/><stop offset="0.15625" stop-color="#C4ADDC"/><stop offset="0.171875" stop-color="#C4ADDC"/><stop offset="0.1875" stop-color="#C3ADDC"/><stop offset="0.203125" stop-color="#C3ACDC"/><stop offset="0.21875" stop-color="#C3ACDC"/><stop offset="0.234375" stop-color="#C2ABDB"/><stop offset="0.25" stop-color="#C2ABDB"/><stop offset="0.265625" stop-color="#C1AADB"/><stop offset="0.28125" stop-color="#C1A9DA"/><stop offset="0.296875" stop-color="#C0A9DA"/><stop offset="0.3125" stop-color="#C0A8DA"/><stop offset="0.328125" stop-color="#BFA7D9"/><stop offset="0.34375" stop-color="#BFA7D9"/><stop offset="0.359375" stop-color="#BEA6D9"/><stop offset="0.375" stop-color="#BDA5D8"/><stop offset="0.390625" stop-color="#BDA4D8"/><stop offset="0.40625" stop-color="#BCA3D7"/><stop offset="0.421875" stop-color="#BBA3D7"/><stop offset="0.4375" stop-color="#BBA2D6"/><stop offset="0.453125" stop-color="#BAA1D6"/><stop offset="0.46875" stop-color="#B9A0D6"/><stop offset="0.484375" stop-color="#B89FD5"/><stop offset="0.5" stop-color="#B89ED5"/><stop offset="0.515625" stop-color="#B79DD4"/><stop offset="0.53125" stop-color="#B69CD3"/><stop offset="0.546875" stop-color="#B59BD3"/><stop offset="0.5625" stop-color="#B499D2"/><stop offset="0.578125" stop-color="#B398D2"/><stop offset="0.59375" stop-color="#B297D1"/><stop offset="0.609375" stop-color="#B196D0"/><stop offset="0.625" stop-color="#B095D0"/><stop offset="0.640625" stop-color="#AF93CF"/><stop offset="0.65625" stop-color="#AE92CF"/><stop offset="0.671875" stop-color="#AD91CE"/><stop offset="0.6875" stop-color="#AC8FCD"/><stop offset="0.703125" stop-color="#AB8ECC"/><stop offset="0.71875" stop-color="#AA8DCC"/><stop offset="0.734375" stop-color="#A98BCB"/><stop offset="0.75" stop-color="#A88ACA"/><stop offset="0.765625" stop-color="#A788C9"/><stop offset="0.78125" stop-color="#A587C9"/><stop offset="0.796875" stop-color="#A485C8"/><stop offset="0.8125" stop-color="#A383C7"/><stop offset="0.828125" stop-color="#A282C6"/><stop offset="0.84375" stop-color="#A080C6"/><stop offset="0.859375" stop-color="#9F7FC5"/><stop offset="0.875" stop-color="#9E7DC4"/><stop offset="0.890625" stop-color="#9C7BC3"/><stop offset="0.90625" stop-color="#9B79C2"/><stop offset="0.921875" stop-color="#9A78C1"/><stop offset="0.9375" stop-color="#9876C0"/><stop offset="0.953125" stop-color="#9774BF"/><stop offset="0.96875" stop-color="#9572BE"/><stop offset="0.984375" stop-color="#9470BD"/><stop offset="1" stop-color="#936FBD"/></linearGradient><clipPath id="clip23"><rect x="-3" y="-3" width="503" height="809"/></clipPath><clipPath id="clip24"><rect x="0" y="0" width="496" height="803"/></clipPath><linearGradient x1="3203.19" y1="561.648" x2="2758.81" y2="1331.35" gradientUnits="userSpaceOnUse" spreadMethod="reflect" id="fill25"><stop offset="0" stop-color="#DFD3ED"/><stop offset="0.0294118" stop-color="#DED2EC"/><stop offset="0.0588235" stop-color="#DED2EC"/><stop offset="0.0882353" stop-color="#DED2EC"/><stop offset="0.117647" stop-color="#DED2EC"/><stop offset="0.147059" stop-color="#DED2EC"/><stop offset="0.176471" stop-color="#DED1EC"/><stop offset="0.205882" stop-color="#DDD1EC"/><stop offset="0.235294" stop-color="#DDD0EC"/><stop offset="0.264706" stop-color="#DCD0EB"/><stop offset="0.294118" stop-color="#DCCFEB"/><stop offset="0.323529" stop-color="#DBCEEB"/><stop offset="0.352941" stop-color="#DBCEEA"/><stop offset="0.382353" stop-color="#DACDEA"/><stop offset="0.411765" stop-color="#DACCEA"/><stop offset="0.441176" stop-color="#D9CBE9"/><stop offset="0.470588" stop-color="#D8CAE9"/><stop offset="0.5" stop-color="#D8C9E8"/><stop offset="0.529412" stop-color="#D7C8E8"/><stop offset="0.558824" stop-color="#D6C7E7"/><stop offset="0.588235" stop-color="#D5C6E7"/><stop offset="0.617647" stop-color="#D4C4E6"/><stop offset="0.647059" stop-color="#D3C3E6"/><stop offset="0.676471" stop-color="#D2C2E5"/><stop offset="0.705882" stop-color="#D1C0E5"/><stop offset="0.735294" stop-color="#D0BFE4"/><stop offset="0.764706" stop-color="#CFBDE3"/><stop offset="0.794118" stop-color="#CEBCE3"/><stop offset="0.823529" stop-color="#CDBAE2"/><stop offset="0.852941" stop-color="#CCB9E1"/><stop offset="0.882353" stop-color="#CBB7E1"/><stop offset="0.911765" stop-color="#C9B5E0"/><stop offset="0.941176" stop-color="#C8B3DF"/><stop offset="0.970588" stop-color="#C7B1DE"/><stop offset="1" stop-color="#C6B0DE"/></linearGradient><clipPath id="clip26"><rect x="-3" y="-3" width="737" height="523"/></clipPath><clipPath id="clip27"><rect x="0" y="0" width="731" height="518"/></clipPath><linearGradient x1="3644.36" y1="451.144" x2="3264.63" y2="1108.86" gradientUnits="userSpaceOnUse" spreadMethod="reflect" id="fill28"><stop offset="0" stop-color="#F7F4FB"/><stop offset="0.03125" stop-color="#F6F3FA"/><stop offset="0.0625" stop-color="#F6F3FA"/><stop offset="0.09375" stop-color="#F6F3FA"/><stop offset="0.125" stop-color="#F6F3FA"/><stop offset="0.15625" stop-color="#F6F2FA"/><stop offset="0.1875" stop-color="#F5F2FA"/><stop offset="0.21875" stop-color="#F5F2FA"/><stop offset="0.25" stop-color="#F5F1F9"/><stop offset="0.28125" stop-color="#F4F0F9"/><stop offset="0.3125" stop-color="#F4F0F9"/><stop offset="0.34375" stop-color="#F3EFF9"/><stop offset="0.375" stop-color="#F3EEF8"/><stop offset="0.40625" stop-color="#F2EDF8"/><stop offset="0.4375" stop-color="#F1ECF8"/><stop offset="0.46875" stop-color="#F1ECF7"/><stop offset="0.5" stop-color="#F0EBF7"/><stop offset="0.53125" stop-color="#EFE9F6"/><stop offset="0.5625" stop-color="#EEE8F6"/><stop offset="0.59375" stop-color="#EDE7F5"/><stop offset="0.625" stop-color="#EDE6F5"/><stop offset="0.65625" stop-color="#ECE5F4"/><stop offset="0.6875" stop-color="#EBE3F4"/><stop offset="0.71875" stop-color="#EAE2F3"/><stop offset="0.75" stop-color="#E9E0F2"/><stop offset="0.78125" stop-color="#E7DFF2"/><stop offset="0.8125" stop-color="#E6DDF1"/><stop offset="0.84375" stop-color="#E5DCF0"/><stop offset="0.875" stop-color="#E4DAF0"/><stop offset="0.90625" stop-color="#E3D8EF"/><stop offset="0.9375" stop-color="#E1D6EE"/><stop offset="0.96875" stop-color="#E0D4ED"/><stop offset="1" stop-color="#DFD3ED"/></linearGradient><clipPath id="clip29"><rect x="-3" y="-3" width="482" height="296"/></clipPath><clipPath id="clip30"><rect x="0" y="0" width="477" height="289"/></clipPath><linearGradient x1="3529.04" y1="1041.51" x2="3311.96" y2="1417.49" gradientUnits="userSpaceOnUse" spreadMethod="reflect" id="fill31"><stop offset="0" stop-color="#F7F4FB"/><stop offset="0.03125" stop-color="#F6F3FA"/><stop offset="0.0625" stop-color="#F6F3FA"/><stop offset="0.09375" stop-color="#F6F3FA"/><stop offset="0.125" stop-color="#F6F3FA"/><stop offset="0.15625" stop-color="#F6F2FA"/><stop offset="0.1875" stop-color="#F5F2FA"/><stop offset="0.21875" stop-color="#F5F2FA"/><stop offset="0.25" stop-color="#F5F1F9"/><stop offset="0.28125" stop-color="#F4F0F9"/><stop offset="0.3125" stop-color="#F4F0F9"/><stop offset="0.34375" stop-color="#F3EFF9"/><stop offset="0.375" stop-color="#F3EEF8"/><stop offset="0.40625" stop-color="#F2EDF8"/><stop offset="0.4375" stop-color="#F1ECF8"/><stop offset="0.46875" stop-color="#F1ECF7"/><stop offset="0.5" stop-color="#F0EBF7"/><stop offset="0.53125" stop-color="#EFE9F6"/><stop offset="0.5625" stop-color="#EEE8F6"/><stop offset="0.59375" stop-color="#EDE7F5"/><stop offset="0.625" stop-color="#EDE6F5"/><stop offset="0.65625" stop-color="#ECE5F4"/><stop offset="0.6875" stop-color="#EBE3F4"/><stop offset="0.71875" stop-color="#EAE2F3"/><stop offset="0.75" stop-color="#E9E0F2"/><stop offset="0.78125" stop-color="#E7DFF2"/><stop offset="0.8125" stop-color="#E6DDF1"/><stop offset="0.84375" stop-color="#E5DCF0"/><stop offset="0.875" stop-color="#E4DAF0"/><stop offset="0.90625" stop-color="#E3D8EF"/><stop offset="0.9375" stop-color="#E1D6EE"/><stop offset="0.96875" stop-color="#E0D4ED"/><stop offset="1" stop-color="#DFD3ED"/></linearGradient></defs><g clip-path="url(#clip8)" transform="translate(-2673 -529)"><g clip-path="url(#clip9)" filter="url(#fx0)" transform="translate(2672 537)"><g clip-path="url(#clip10)"><path d="M991.833 497.877 1398.35 698.615 1398.83 708.272C1398.83 898.731 1321.71 1071.16 1197.01 1195.97L1154.24 1234.88Z" fill="#FF0000" fill-rule="evenodd"/><path d="M1059.75 808.877 1153.83 1235.08 1147.86 1240.51C1028.73 1338.82 876.01 1397.88 709.493 1397.88 685.705 1397.88 662.198 1396.67 639.031 1394.32L608.833 1389.71Z" fill="#FF0000" fill-rule="evenodd"/><path d="M865.834 1057.88 607.625 1389.88 570.234 1384.17C390.779 1347.47 236.731 1241.06 137.652 1094.49L115.833 1058.6 553.345 1058.18 553.644 1058.56 864.611 1058.56 865.143 1057.88Z" fill="#FF0000" fill-rule="evenodd"/><path d="M74.1418 439.877 359.938 806.747 359.529 808.584 552.833 1057.36 115.565 1057.88 102.987 1037.16C49.9564 939.481 19.8333 827.541 19.8333 708.56 19.8333 613.377 39.112 522.699 73.9755 440.223Z" fill="#FF0000" fill-rule="evenodd"/><path d="M527.833 43.8773 356.505 806.877 71.8335 441.33 72.2158 440.286C150.668 254.822 308.03 110.855 502.218 50.4628Z" fill="#FF0000" fill-rule="evenodd"/><path d="M708.981 19.8772C851.689 19.8772 984.263 63.2352 1094.24 137.49L1118.83 155.873 427.833 497.877 528.309 44.6113 570.113 33.8683C614.968 24.6948 661.412 19.8772 708.981 19.8772Z" fill="#FF0000" fill-rule="evenodd"/><path d="M896.131 707.82C894.576 707.82 892.502 707.82 890.946 707.82 890.946 707.82 890.946 707.82 890.946 707.82 890.946 682.393 878.502 659.042 858.281 644.513 837.54 629.983 811.097 626.351 787.246 634.654 767.542 596.254 723.988 576.536 682.508 586.395 641.027 596.254 610.954 633.616 610.954 676.685 610.954 676.685 610.954 677.204 610.954 677.723 582.436 673.053 553.919 684.988 536.289 707.82 519.179 731.171 516.068 761.787 527.993 787.732 540.437 813.678 566.362 830.802 594.88 832.358L594.88 832.877 895.613 832.877C929.834 832.877 957.833 804.856 957.833 770.608 957.833 736.36 930.353 707.82 896.131 707.82Z" fill="#FF0000" fill-rule="evenodd"/></g></g><g clip-path="url(#clip11)" filter="url(#fx1)" transform="translate(3660 982)"><g clip-path="url(#clip12)"><path d="M19.5701 19.8842 426.083 220.622 426.57 230.279C426.57 420.738 349.443 593.165 224.744 717.977L181.974 756.884Z" fill="#FF0000" fill-rule="evenodd"/></g></g><path d="M3673 1019 4079.51 1219.74 4080 1229.39C4080 1419.85 4002.87 1592.28 3878.17 1717.09L3835.4 1756Z" fill="url(#fill13)" fill-rule="evenodd"/><g clip-path="url(#clip14)" filter="url(#fx2)" transform="translate(3286 1301)"><g clip-path="url(#clip15)"><path d="M470.95 20.1118 565.034 446.314 559.06 451.744C439.934 550.055 287.211 609.112 120.694 609.112 96.9065 609.112 73.3997 607.907 50.2326 605.554L20.0347 600.946Z" fill="#FF0000" fill-rule="evenodd"/></g></g><path d="M3740.92 1330 3835 1756.2 3829.03 1761.63C3709.9 1859.94 3557.18 1919 3390.66 1919 3366.87 1919 3343.36 1917.8 3320.2 1915.44L3290 1910.83Z" fill="url(#fill16)" fill-rule="evenodd"/><g clip-path="url(#clip17)" filter="url(#fx3)" transform="translate(2795 1564)"><g clip-path="url(#clip18)"><path d="M769.533 20.36 511.324 352.36 473.933 346.657C294.478 309.956 140.43 203.547 41.3509 56.9727L19.5325 21.0789 457.044 20.6596 457.343 21.0436 768.31 21.0436 768.842 20.3607Z" fill="#FF0000" fill-rule="evenodd"/></g></g><path d="M3547 1579 3288.79 1911 3251.4 1905.3C3071.95 1868.6 2917.9 1762.19 2818.82 1615.61L2797 1579.72 3234.51 1579.3 3234.81 1579.68 3545.78 1579.68 3546.31 1579Z" fill="url(#fill19)" fill-rule="evenodd"/><g clip-path="url(#clip20)" filter="url(#fx4)" transform="translate(2687 958)"><g clip-path="url(#clip21)"><path d="M74.5788 20.2278 360.375 387.097 359.966 388.935 553.27 637.709 116.002 638.228 103.424 617.512C50.3934 519.831 20.2703 407.891 20.2703 288.911 20.2703 193.727 39.549 103.05 74.4125 20.5735Z" fill="#FF0000" fill-rule="evenodd"/></g></g><path d="M2755.31 961 3041.1 1327.87 3040.7 1329.71 3234 1578.48 2796.73 1579 2784.15 1558.28C2731.12 1460.6 2701 1348.66 2701 1229.68 2701 1134.5 2720.28 1043.82 2755.14 961.346Z" fill="url(#fill22)" fill-rule="evenodd"/><g clip-path="url(#clip23)" filter="url(#fx5)" transform="translate(2732 563)"><g clip-path="url(#clip24)"><path d="M475.721 20.2888 304.393 783.289 19.7212 417.742 20.1035 416.698C98.5561 231.234 255.917 87.2665 450.105 26.8744Z" fill="#FF0000" fill-rule="evenodd"/></g></g><path d="M3209 565 3037.67 1328 2753 962.453 2753.38 961.409C2831.83 775.945 2989.2 631.978 3183.38 571.586Z" fill="url(#fill25)" fill-rule="evenodd"/><g clip-path="url(#clip26)" filter="url(#fx6)" transform="translate(3072 528)"><g clip-path="url(#clip27)"><path d="M301.149 19.8679C443.857 19.8679 576.431 63.2258 686.404 137.48L711.002 155.864 20.0015 497.868 120.477 44.602 162.281 33.859C207.136 24.6855 253.58 19.8679 301.149 19.8679Z" fill="#FF0000" fill-rule="evenodd"/></g></g><path d="M3390.15 541C3532.86 541 3665.43 584.358 3775.4 658.613L3800 676.996 3109 1019 3209.48 565.734 3251.28 554.991C3296.13 545.818 3342.58 541 3390.15 541Z" fill="url(#fill28)" fill-rule="evenodd"/><g clip-path="url(#clip29)" filter="url(#fx7)" transform="translate(3173 1101)"><g clip-path="url(#clip30)"><path d="M395.131 143.82C393.576 143.82 391.502 143.82 389.946 143.82 389.946 143.82 389.946 143.82 389.946 143.82 389.946 118.393 377.502 95.0425 357.28 80.5131 336.54 65.9834 310.097 62.351 286.245 70.6536 266.542 32.2544 222.988 12.5357 181.507 22.3949 140.027 32.2544 109.954 69.6157 109.954 112.685 109.954 112.685 109.954 113.204 109.954 113.723 81.436 109.053 52.9183 120.988 35.2891 143.82 18.1783 167.171 15.0675 197.787 26.9931 223.732 39.437 249.678 65.3622 266.802 93.8799 268.358L93.8799 268.877 394.613 268.877C428.834 268.877 456.833 240.856 456.833 206.608 456.833 172.36 429.353 143.82 395.131 143.82Z" fill="#FF0000" fill-rule="evenodd"/></g></g><path d="M3577.3 1228.94C3575.74 1228.94 3573.67 1228.94 3572.11 1228.94 3572.11 1228.94 3572.11 1228.94 3572.11 1228.94 3572.11 1203.52 3559.67 1180.17 3539.45 1165.64 3518.71 1151.11 3492.26 1147.47 3468.41 1155.78 3448.71 1117.38 3405.15 1097.66 3363.67 1107.52 3322.19 1117.38 3292.12 1154.74 3292.12 1197.81 3292.12 1197.81 3292.12 1198.33 3292.12 1198.85 3263.6 1194.18 3235.08 1206.11 3217.46 1228.94 3200.34 1252.29 3197.23 1282.91 3209.16 1308.85 3221.6 1334.8 3247.53 1351.92 3276.05 1353.48L3276.05 1354 3576.78 1354C3611 1354 3639 1325.98 3639 1291.73 3639 1257.48 3611.52 1228.94 3577.3 1228.94Z" fill="url(#fill31)" fill-rule="evenodd"/></g></svg>